<?xml version="1.0" standalone="no"?>
<!DOCTYPE svg PUBLIC "-//W3C//DTD SVG 20010904//EN"
 "http://www.w3.org/TR/2001/REC-SVG-20010904/DTD/svg10.dtd">
<svg version="1.0" xmlns="http://www.w3.org/2000/svg"
 width="873.000000pt" height="720.000000pt" viewBox="0 0 873.000000 720.000000"
 preserveAspectRatio="xMidYMid meet">

<g transform="translate(0.000000,720.000000) scale(0.100000,-0.100000)"
fill="#000000" stroke="none">
<path d="M2418 6863 c-59 -2 -100 -8 -106 -16 -5 -7 -23 -52 -40 -102 -45
-134 -89 -249 -113 -297 -12 -24 -41 -99 -64 -168 -42 -124 -70 -198 -118
-316 -13 -34 -39 -108 -56 -165 -38 -124 -88 -237 -114 -261 -27 -25 -64 -22
-92 7 -33 32 -31 52 9 143 18 43 43 111 55 152 13 41 37 109 53 150 17 41 52
136 78 210 67 190 106 293 128 337 11 21 29 67 42 103 12 36 28 79 34 95 26
62 36 99 28 106 -9 10 -283 -15 -450 -40 -311 -47 -487 -89 -514 -122 -15 -18
-18 -43 -18 -158 0 -75 -5 -156 -11 -181 -6 -25 -14 -115 -18 -202 -5 -133 -9
-159 -25 -177 -37 -41 -112 -19 -122 35 -10 52 2 260 20 349 17 86 21 251 7
274 -6 9 -16 11 -32 6 -27 -8 -133 -67 -163 -90 -20 -15 -20 -16 28 -130 32
-76 33 -115 3 -143 -43 -40 -110 -18 -123 41 -10 46 -36 97 -49 97 -18 0 -62
-98 -75 -168 -8 -37 -11 -98 -7 -149 4 -78 10 -96 52 -180 51 -100 196 -280
282 -351 25 -20 61 -49 78 -64 l32 -28 -33 -84 c-94 -236 -143 -645 -169
-1411 l-6 -180 131 -115 c72 -63 148 -126 168 -140 70 -47 193 -141 232 -176
48 -43 50 -67 15 -139 -14 -27 -25 -56 -25 -63 0 -7 -6 -21 -12 -32 -16 -26
-7 -34 84 -79 78 -39 105 -71 95 -112 -12 -46 -85 -64 -128 -30 -13 10 -53 28
-89 40 -36 11 -78 32 -95 45 -26 21 -30 30 -29 73 0 26 13 83 28 126 22 63 25
81 15 93 -7 8 -80 66 -163 128 -83 63 -164 128 -180 145 -17 17 -34 31 -39 31
-6 0 -8 -163 -4 -437 7 -545 24 -725 94 -983 14 -52 29 -108 33 -125 12 -48
34 -102 95 -240 48 -109 82 -176 110 -220 18 -27 54 -84 80 -125 116 -180 289
-357 465 -477 105 -71 321 -173 455 -215 60 -19 311 -68 349 -68 32 0 44 6 77
42 22 24 39 46 39 50 0 4 30 44 68 90 37 46 74 92 82 104 71 100 172 227 228
287 38 39 95 108 127 152 32 44 65 86 74 93 40 33 111 -2 111 -55 0 -38 -26
-77 -138 -211 -108 -128 -168 -201 -259 -318 -147 -188 -173 -223 -173 -234 0
-9 25 -11 92 -9 l92 4 29 -60 c36 -75 126 -168 193 -199 115 -53 477 -74 626
-36 182 46 285 131 338 282 18 51 20 119 36 884 11 541 20 834 27 842 6 8 38
26 71 41 92 42 183 146 227 259 34 86 34 89 34 247 0 170 -6 213 -56 378 -25
83 -38 108 -82 159 -87 103 -245 164 -485 189 -147 15 -632 6 -852 -15 -85 -9
-158 -16 -162 -16 -5 0 -8 -5 -8 -11 0 -10 73 -201 108 -281 l16 -38 63 0 c58
0 66 -3 98 -32 31 -30 37 -45 69 -186 20 -84 38 -157 41 -161 8 -15 -16 -71
-35 -81 -31 -16 -65 -11 -87 12 -23 25 -35 62 -58 187 -23 119 -26 123 -83
115 -97 -12 -120 14 -203 235 -30 80 -61 153 -69 164 -15 18 -16 18 -43 -3
-40 -31 -105 -122 -132 -185 -70 -157 -72 -445 -4 -603 63 -147 152 -220 289
-240 l55 -7 7 -50 c3 -28 7 -112 7 -188 1 -213 -11 -229 -192 -242 -88 -7 -99
-10 -106 -29 -5 -11 -16 -122 -25 -246 -15 -215 -23 -287 -47 -445 -19 -121
-35 -145 -98 -145 -48 0 -66 35 -56 113 7 61 12 105 34 282 6 50 15 162 21
250 6 88 13 176 16 195 5 33 3 36 -37 53 -24 9 -46 14 -50 10 -12 -14 -39
-150 -39 -198 0 -56 -32 -95 -79 -95 -63 0 -87 80 -60 200 5 25 15 77 21 117
l12 71 -42 54 c-72 93 -127 228 -182 445 -38 150 -51 872 -21 1153 32 292 85
657 146 993 37 207 174 363 353 403 88 20 261 15 352 -10 l55 -15 50 47 c49
47 151 135 298 256 40 32 90 74 111 92 81 69 176 24 176 -82 0 -13 4 -25 8
-28 9 -5 77 38 127 82 19 17 56 43 82 58 26 15 64 40 83 56 66 53 145 29 138
-43 -3 -35 -6 -37 -228 -197 -60 -44 -115 -92 -135 -121 -83 -115 -179 -90
-200 52 -4 26 -11 50 -16 52 -4 3 -41 -23 -81 -57 -40 -34 -77 -66 -83 -70
-44 -32 -159 -135 -201 -179 l-51 -55 -7 -300 c-7 -293 -7 -302 15 -365 12
-35 28 -75 35 -89 20 -40 114 -126 168 -154 133 -70 428 -136 608 -136 257 0
425 131 504 395 23 78 27 113 31 263 8 255 -18 475 -97 817 -10 44 -22 96 -25
115 -4 19 -15 64 -25 100 -10 36 -25 99 -35 140 -9 41 -24 93 -34 115 -10 22
-33 96 -50 165 -18 69 -46 152 -61 186 -29 60 -126 190 -171 230 -118 102
-313 195 -519 248 -192 49 -587 80 -882 69z"/>
<path d="M5400 6834 c-85 -16 -200 -49 -242 -70 -99 -50 -174 -139 -209 -246
-19 -58 -21 -102 -29 -538 -5 -261 -12 -634 -16 -828 l-7 -353 -61 -31 c-92
-46 -182 -130 -216 -200 -52 -107 -63 -178 -57 -355 7 -198 44 -372 98 -459
26 -43 101 -105 167 -138 54 -27 72 -27 72 1 0 8 40 97 88 197 49 99 97 201
107 226 23 58 29 75 54 134 12 27 21 55 21 63 0 23 47 63 75 63 35 0 75 -42
75 -77 0 -15 -11 -50 -25 -78 -13 -27 -25 -53 -25 -57 0 -18 -89 -216 -156
-351 -41 -81 -74 -156 -74 -167 0 -10 8 -21 18 -24 35 -11 200 -26 290 -26
l92 0 0 95 c0 88 2 98 25 120 31 32 74 33 103 2 19 -20 22 -35 22 -101 0 -104
7 -116 73 -116 90 0 465 29 535 41 98 17 163 52 227 121 61 66 87 111 116 200
51 162 51 334 0 496 -28 85 -53 131 -106 190 -55 62 -118 93 -200 101 l-60 6
-6 60 c-4 33 -7 115 -8 182 -2 204 18 227 211 239 160 10 268 -12 404 -84 121
-63 241 -283 298 -547 15 -69 36 -508 36 -752 0 -89 3 -113 14 -113 7 0 19 7
26 15 39 47 385 265 421 265 29 0 55 -25 94 -92 15 -27 30 -48 33 -48 11 0 68
72 91 115 11 22 40 67 64 100 38 52 48 60 80 63 98 8 111 -65 28 -164 -14 -18
-39 -55 -56 -84 -29 -50 -110 -160 -154 -207 -15 -17 -31 -23 -64 -23 -51 0
-71 18 -111 98 -15 29 -33 55 -41 58 -29 11 -249 -150 -382 -280 -61 -58 -63
-62 -63 -111 0 -99 -56 -523 -91 -700 -6 -27 -23 -122 -39 -210 -35 -199 -67
-273 -155 -361 -33 -34 -79 -71 -101 -82 -94 -48 -233 -64 -369 -42 -129 21
-147 27 -184 64 l-36 37 2 299 c1 165 -2 300 -6 300 -4 0 -12 -10 -18 -22 -40
-85 -75 -162 -93 -209 -12 -30 -28 -60 -37 -66 -25 -19 -70 -16 -93 7 -31 31
-25 80 19 168 21 42 42 88 46 102 4 14 32 76 62 138 31 66 51 121 48 132 -8
27 -98 98 -173 137 -74 38 -250 90 -263 76 -4 -4 -12 -45 -18 -91 -6 -45 -22
-125 -37 -178 -38 -141 -78 -395 -94 -598 -10 -137 -20 -156 -81 -156 -53 0
-71 28 -65 100 3 30 10 114 16 185 7 72 21 189 32 260 19 121 26 153 63 290 7
28 17 89 21 136 8 103 14 99 -147 99 -112 0 -178 -14 -261 -56 -49 -25 -168
-129 -168 -147 0 -6 -7 -18 -15 -27 -23 -26 -73 -177 -85 -256 -21 -150 -8
-474 29 -704 21 -133 64 -343 95 -469 19 -75 40 -161 47 -191 6 -30 23 -78 36
-106 13 -29 31 -85 39 -126 16 -79 74 -237 102 -279 102 -154 248 -267 442
-344 25 -10 63 -25 85 -35 36 -15 91 -28 258 -60 26 -6 100 -15 165 -20 64 -6
161 -16 214 -22 131 -15 723 6 898 32 36 6 117 17 180 25 368 50 690 141 868
247 60 35 185 155 208 201 25 46 54 179 54 242 -1 135 -90 304 -249 467 -57
60 -109 108 -116 108 -6 0 -56 -33 -111 -74 -154 -114 -191 -127 -232 -83 -30
32 -28 72 4 94 14 10 49 36 77 58 29 22 78 58 109 79 31 21 66 48 77 60 27 29
53 106 82 248 26 130 23 145 -27 129 -31 -9 -102 -21 -274 -46 -140 -20 -233
-37 -242 -44 -4 -3 0 -31 8 -61 40 -154 0 -188 -256 -209 -74 -7 -184 -16
-244 -22 -92 -8 -112 -7 -131 5 -31 20 -40 51 -25 86 17 41 9 40 285 60 218
17 225 18 225 47 0 13 -12 48 -26 78 -30 61 -27 96 9 119 31 20 371 86 527
102 66 6 144 24 191 42 31 12 32 15 54 287 37 465 47 773 42 1300 -5 512 -6
536 -30 735 -34 281 -88 501 -172 700 -46 108 -107 234 -120 250 -8 8 -32 48
-55 88 -64 114 -231 322 -258 322 -12 0 -14 -11 -8 -62 3 -35 11 -180 16 -323
10 -258 10 -259 -12 -282 -27 -29 -69 -29 -95 0 -26 28 -31 67 -42 342 -5 121
-12 238 -15 260 -3 22 -11 84 -17 138 l-12 98 -61 43 c-56 39 -209 122 -296
160 -181 78 -458 135 -671 136 l-97 0 -53 -64 c-30 -36 -112 -133 -182 -216
-71 -84 -126 -158 -123 -165 2 -7 22 -17 43 -22 25 -6 43 -18 53 -35 13 -25
13 -31 -9 -75 -13 -26 -66 -112 -119 -191 -100 -150 -115 -175 -158 -257 -47
-89 -71 -115 -108 -115 -40 0 -66 26 -66 65 0 34 86 206 146 293 24 34 64 91
89 126 25 36 45 68 44 73 0 4 -21 22 -47 38 -40 26 -47 35 -50 67 -5 61 11 84
276 385 52 59 82 102 82 116 0 68 -102 183 -204 231 -30 14 -80 28 -112 32
-33 3 -72 10 -89 14 -35 10 -278 20 -315 14z m1244 -5353 c15 -16 19 -55 27
-268 6 -136 16 -281 24 -322 26 -130 18 -171 -33 -171 -32 0 -58 61 -71 167
-12 98 -27 574 -18 597 9 22 50 20 71 -3z m836 -1 c10 -6 14 -23 12 -57 -4
-89 -1 -497 5 -580 7 -109 -1 -149 -40 -185 -48 -45 -104 -68 -170 -68 -104 0
-151 35 -163 122 -12 89 37 118 81 48 33 -52 57 -64 112 -55 78 11 84 25 81
178 -3 126 -4 132 -23 129 -11 -2 -50 -6 -88 -9 -78 -6 -116 6 -152 49 -21 25
-25 40 -25 97 0 98 23 156 89 221 79 79 153 120 216 120 28 0 57 -5 65 -10z
m-1955 -25 c55 -8 158 -15 229 -15 106 0 133 -3 148 -17 21 -19 25 -87 6 -100
-7 -4 -65 -10 -128 -13 l-115 -5 -6 -135 c-17 -364 -22 -426 -35 -447 -18 -28
-64 -31 -87 -5 -15 16 -15 45 -6 301 7 213 7 287 -2 297 -6 8 -30 14 -53 15
-22 0 -68 8 -101 17 -59 17 -60 18 -63 55 -2 21 2 45 9 53 15 18 75 18 204 -1z
m2329 -206 c49 -38 61 -75 61 -184 0 -107 -20 -171 -68 -224 -56 -60 -167 -79
-228 -38 -56 37 -81 95 -87 198 -8 139 18 187 133 247 56 29 152 30 189 1z
m-1585 -3 c6 -8 14 -37 18 -65 4 -33 10 -51 19 -51 8 0 14 4 14 10 0 5 17 16
38 25 20 9 45 21 54 26 28 14 95 11 112 -6 21 -21 3 -60 -33 -73 -14 -6 -48
-18 -76 -27 -29 -10 -65 -34 -86 -55 -31 -32 -37 -46 -42 -100 -4 -35 -7 -91
-7 -125 0 -43 -5 -66 -15 -75 -21 -17 -62 -4 -71 23 -4 12 -7 119 -8 237 -1
191 1 219 17 243 19 29 48 35 66 13z m769 -33 c26 -20 27 -23 33 -149 4 -82
12 -145 22 -173 21 -55 21 -70 0 -93 -22 -24 -41 -23 -84 6 -24 17 -40 21 -50
15 -24 -15 -98 -10 -137 10 -94 48 -125 148 -82 264 22 60 44 83 110 122 38
22 55 25 103 22 38 -2 67 -10 85 -24z m-1009 -2 c47 -47 51 -144 8 -231 -17
-34 -36 -52 -82 -79 -32 -19 -73 -37 -90 -41 -71 -14 -24 -86 63 -97 47 -5 53
-3 79 24 15 16 33 38 39 48 30 50 72 -43 44 -95 -23 -43 -69 -60 -161 -60 -79
0 -89 2 -125 28 -52 38 -59 48 -73 104 -39 163 26 346 144 399 55 25 129 25
154 0z"/>
<path d="M7319 1326 c-80 -55 -122 -167 -74 -202 31 -23 73 -17 106 16 29 28
30 31 27 116 -2 48 -8 89 -13 91 -6 2 -26 -8 -46 -21z"/>
<path d="M7702 1143 c-29 -11 -82 -96 -82 -130 0 -67 83 -117 131 -80 44 33
66 169 33 201 -15 15 -55 20 -82 9z"/>
<path d="M6894 1091 c-27 -12 -54 -54 -54 -84 0 -47 71 -77 100 -42 7 8 13 41
14 73 1 50 -1 57 -19 59 -11 1 -29 -2 -41 -6z"/>
<path d="M5890 1093 c-40 -40 -57 -81 -46 -109 10 -25 55 -9 94 32 27 29 33
42 30 72 -4 52 -29 53 -78 5z"/>
</g>
</svg>
